<svg width="1600" height="900" viewBox="0 0 1600 900" fill="none" xmlns="http://www.w3.org/2000/svg">
  <rect width="1600" height="900" fill="#0B1220"/>
  <rect x="80" y="80" width="1440" height="740" rx="28" fill="#101A2D" stroke="#2B3A55"/>
  <circle cx="260" cy="220" r="110" fill="#1D4ED8" fill-opacity="0.18"/>
  <circle cx="1310" cy="180" r="140" fill="#93C5FD" fill-opacity="0.12"/>
  <circle cx="1260" cy="700" r="170" fill="#1D4ED8" fill-opacity="0.12"/>
  <path d="M300 280H1300" stroke="#3B82F6" stroke-opacity="0.4" stroke-width="2"/>
  <path d="M300 450H1300" stroke="#3B82F6" stroke-opacity="0.25" stroke-width="2"/>
  <path d="M300 620H1300" stroke="#3B82F6" stroke-opacity="0.18" stroke-width="2"/>
  <path d="M420 180V720" stroke="#93C5FD" stroke-opacity="0.18" stroke-width="2"/>
  <path d="M800 140V760" stroke="#93C5FD" stroke-opacity="0.26" stroke-width="2"/>
  <path d="M1180 180V720" stroke="#93C5FD" stroke-opacity="0.18" stroke-width="2"/>
  <rect x="340" y="315" width="210" height="90" rx="16" fill="#17243B" stroke="#35507A"/>
  <rect x="695" y="315" width="210" height="90" rx="16" fill="#17243B" stroke="#35507A"/>
  <rect x="1050" y="315" width="210" height="90" rx="16" fill="#17243B" stroke="#35507A"/>
  <rect x="520" y="505" width="210" height="90" rx="16" fill="#17243B" stroke="#35507A"/>
  <rect x="875" y="505" width="210" height="90" rx="16" fill="#17243B" stroke="#35507A"/>
</svg>
